<?xml version="1.0" encoding="UTF-8"?>
<svg xmlns="http://www.w3.org/2000/svg" width="218" height="25" fill="none">
    <path fill-rule="evenodd" clip-rule="evenodd"
        d="M146.094 12.492c-.447 3.289-3.438 5.916-6.736 5.916-3.299 0-5.58-2.627-5.149-5.916.447-3.288 3.438-5.915 6.736-5.915 3.314 0 5.596 2.627 5.149 5.915zm8.416 0C155.373 6.085 150.086 0 141.839 0c-8.246 0-15.167 6.085-16.03 12.492-.863 6.408 4.424 12.493 12.67 12.493 8.247.015 15.167-6.07 16.031-12.493zm20.485 11.509h8.57l-2.898-7.898h3.129L185.831.968h-25.078l-3.099 23.018h8.077l1.064-7.898h5.271L174.995 24zm-6.967-16.764h8.909l-.401 2.966h-8.909l.401-2.966zM193.229.983l-3.098 23.018h13.025c7.753 0 13.919-5.424 14.751-11.509.817-6.085-3.9-11.509-11.653-11.509h-13.025zm12.146 6.577c2.482 0 4.47 2.305 4.116 4.932-.355 2.628-2.975 4.933-5.441 4.933h-4.948l1.325-9.865h4.948zM94.564 24.001h8.093l.524-3.933.139-1 .971-7.19.308.092L111.397 24h8.076L122.572.983h-8.077l-.971 7.238-.663 4.886-.278-.077L105.755.983h-8.077l-3.114 23.018z"
        fill="#97bfe6"></path>
    <path fill-rule="evenodd" clip-rule="evenodd"
        d="M104.291 11.878l.139-1.03 1.187-8.835.138-1.03-1.325 9.865-.139 1.03zm8.432 2.258l.138-1.03-.138 1.03z"
        fill="#97bfe6"></path>
    <path fill-rule="evenodd" clip-rule="evenodd"
        d="M87.32 24.001l.878-6.576H83.59l1.326-9.865h4.624l.879-6.577h-17.31l-.894 6.577h4.624l-1.326 9.865h-4.624L69.994 24M54.427 7.56c2.466 0 4.47 2.305 4.115 4.932-.354 2.628-2.975 4.933-5.44 4.933h-4.949l.94-7.038h-8.076l-1.835 13.614h13.025c7.753 0 13.919-5.424 14.751-11.509.817-6.085-3.9-11.509-11.653-11.509H36.377l.709 6.577h17.341z"
        fill="#E73C2E"></path>
    <path fill-rule="evenodd" clip-rule="evenodd"
        d="M45.825 24.001h-8.693l-6.274-6.254h-3.052l.077.784h-6.15l-.385-3.642h6.165l.077.661h4.193l6.273 6.254h7.538l.231 2.197zm-20.023-7.775h-2.466l.108.968h2.466l-.108-.968zm1.65-13.046h16.107l.247 2.198h-15.43l-2.003 1.997H15.845l.077.723H9.756l-.385-3.642h6.166l.077.722h9.85l1.988-1.997zm-13.61 2.613H11.36l.107.968h2.467l-.093-.968zm-7.599 4.61H43.42l.247 2.197H6.474l.077.722H.385L0 9.68h6.166l.077.723zm-1.773.614H1.988l.108.968h2.467l-.093-.968z"
        fill="#E73C2E"></path>
</svg>
